<?xml version="1.0"?>
<svg xmlns="http://www.w3.org/2000/svg" width="512" height="512" viewBox="0 0 128 128"><g><path fill="#fff" d="M105.56,52.81A41.5,41.5,0,0,0,78.31,13.784V12.5a7.759,7.759,0,0,0-7.75-7.75H57.44a7.759,7.759,0,0,0-7.75,7.75v1.284a41.563,41.563,0,0,0,3.54,79.163l-2.321,15.827A13.766,13.766,0,0,0,42.346,121.5a1.751,1.751,0,0,0,1.75,1.75H83.9a1.751,1.751,0,0,0,1.75-1.75,13.766,13.766,0,0,0-8.563-12.726L74.77,92.947A41.629,41.629,0,0,0,105.56,52.81ZM64,42.4a18.25,18.25,0,1,1-18.25,18.25A18.271,18.271,0,0,1,64,42.4ZM57.44,8.25H70.56a4.255,4.255,0,0,1,4.25,4.25V41.792a21.669,21.669,0,0,0-21.62,0V12.5A4.255,4.255,0,0,1,57.44,8.25ZM25.94,52.81A38,38,0,0,1,49.69,17.536V44.3a21.75,21.75,0,1,0,28.62,0V17.536A38.063,38.063,0,1,1,25.94,52.81ZM82,119.75H46a10.267,10.267,0,0,1,10.1-8.5H71.9A10.267,10.267,0,0,1,82,119.75Zm-8.587-11.912a13.751,13.751,0,0,0-1.513-.088H56.1a13.751,13.751,0,0,0-1.513.088l2.073-14.131a41.006,41.006,0,0,0,14.688,0Z"/><path fill="#fff" d="M64,73.4a12.75,12.75,0,1,0-12.75-12.75A12.764,12.764,0,0,0,64,73.4Zm0-22a9.25,9.25,0,1,1-9.25,9.25A9.26,9.26,0,0,1,64,51.4Z"/><path fill="#fff" d="M64,23.25a4.75,4.75,0,1,0-4.75-4.75A4.756,4.756,0,0,0,64,23.25Zm0-6a1.25,1.25,0,1,1-1.25,1.25A1.252,1.252,0,0,1,64,17.25Z"/></g></svg>
